<?xml version="1.0" standalone="no"?>
<!DOCTYPE svg PUBLIC "-//W3C//DTD SVG 20010904//EN"
 "http://www.w3.org/TR/2001/REC-SVG-20010904/DTD/svg10.dtd">
<svg version="1.0" xmlns="http://www.w3.org/2000/svg"
 width="700.000000pt" height="679.000000pt" viewBox="0 0 700.000000 679.000000"
 preserveAspectRatio="xMidYMid meet">
<metadata>
Created by potrace 1.15, written by Peter Selinger 2001-2017
</metadata>
<g transform="translate(0.000000,679.000000) scale(0.100000,-0.100000)"
fill="#000000" stroke="none">
<path d="M2975 5720 c-6 -10 0 -125 11 -202 l6 -38 -47 0 c-57 0 -100 -21
-125 -62 -29 -48 -13 -68 53 -68 65 1 127 15 139 32 5 7 7 71 4 146 l-5 132
35 -46 c26 -34 34 -53 30 -70 -8 -30 13 -43 31 -19 21 29 16 46 -28 105 -71
96 -90 112 -104 90z"/>
<path d="M2455 5414 c-49 -13 -100 -24 -112 -24 -34 0 -39 -22 -31 -122 10
-106 7 -119 -21 -111 -47 12 -121 -46 -121 -96 0 -34 32 -44 101 -30 75 15 82
28 78 149 l-3 84 84 17 c47 9 97 22 113 28 26 10 27 9 29 -24 1 -19 2 -42 2
-51 1 -12 -9 -17 -40 -18 -50 -3 -88 -26 -109 -65 -30 -60 5 -80 100 -59 85
19 91 34 78 201 -6 93 -13 131 -24 138 -18 11 -18 11 -124 -17z"/>
<path d="M3602 5198 c-51 -16 -74 -31 -125 -82 -61 -62 -129 -175 -142 -240
-6 -27 -8 -28 -45 -23 -26 3 -43 1 -50 -9 -17 -20 -4 -33 41 -40 23 -4 38 -11
36 -18 -2 -6 -24 -108 -47 -226 -24 -118 -46 -217 -49 -220 -3 -3 -35 -39 -70
-80 -133 -155 -164 -164 -234 -63 -33 48 -29 108 8 117 13 3 56 28 97 56 80
54 118 105 165 222 85 209 -93 460 -336 476 -72 5 -75 4 -168 -44 -103 -53
-173 -117 -173 -157 0 -13 -9 -32 -19 -41 -18 -17 -32 -60 -46 -147 -3 -20
-19 -54 -37 -75 -17 -22 -39 -58 -50 -82 -11 -23 -43 -69 -71 -101 -63 -71
-283 -350 -477 -606 -79 -104 -156 -206 -172 -225 -31 -39 -37 -93 -14 -126
13 -17 11 -23 -20 -61 -19 -23 -34 -48 -34 -57 0 -28 27 -17 56 22 15 20 29
39 30 41 2 2 23 -5 48 -14 68 -26 100 -11 220 105 56 54 229 216 386 361 157
145 309 286 337 313 84 79 99 85 151 67 34 -13 53 -29 84 -73 81 -116 143
-114 257 8 39 42 71 74 71 71 0 -41 -114 -478 -133 -508 -14 -23 7 -49 38 -49
13 0 64 -9 114 -21 63 -14 91 -25 91 -35 0 -8 7 -81 16 -162 8 -81 19 -181 24
-222 l8 -75 -40 -61 c-62 -98 -46 -92 -275 -96 -129 -2 -206 -7 -213 -14 -12
-12 -15 -1905 -4 -1963 l6 -29 -67 -7 c-37 -4 -97 -4 -134 1 -36 5 -192 9
-346 9 -160 0 -321 5 -375 12 -137 18 -1109 25 -1209 9 -87 -14 -515 -15 -633
-2 l-78 9 0 -25 c0 -23 3 -24 113 -36 133 -15 538 -9 640 8 94 17 1099 7 1177
-11 37 -9 150 -13 350 -13 162 -1 318 -5 346 -10 29 -5 100 -5 159 -1 93 6
106 9 99 24 -4 9 -8 441 -10 961 -2 520 -5 955 -8 968 -3 12 -2 22 2 22 4 0
72 -33 152 -73 l145 -72 4 -100 c1 -55 -3 -363 -9 -685 -8 -340 -10 -680 -5
-813 7 -223 8 -227 29 -227 l21 0 2 788 c1 433 5 839 10 902 l8 115 524 3
c378 1 528 -1 537 -9 19 -16 19 -617 -1 -1189 -8 -239 -16 -475 -17 -523 l-3
-89 50 7 c60 9 53 9 140 0 52 -6 84 -3 124 9 44 13 66 14 125 5 94 -13 983
-13 1107 0 130 14 359 15 440 2 79 -13 574 -6 634 9 22 5 55 10 73 10 27 0 32
4 32 25 0 30 -10 31 -143 12 -99 -15 -448 -16 -710 -2 -97 5 -203 3 -305 -5
-190 -15 -1025 -15 -1128 -1 -60 9 -83 8 -140 -7 -41 -11 -79 -15 -94 -11 -14
4 -53 7 -87 8 l-63 1 0 82 c0 44 7 275 15 512 9 240 15 593 13 797 -3 348 -4
368 -23 389 -19 21 -329 177 -409 206 -21 8 -51 14 -66 14 -20 0 -34 10 -53
38 l-25 37 8 223 c5 123 11 226 14 229 5 5 92 -14 173 -38 23 -7 45 -10 48 -7
3 3 13 65 21 138 8 73 17 136 19 140 3 4 23 94 45 200 52 245 51 240 95 240
108 0 250 131 317 293 17 40 34 76 38 80 8 9 98 21 143 19 16 -1 30 5 34 13 8
23 -14 44 -40 38 -18 -5 -20 -3 -9 8 6 7 12 22 12 32 0 15 -5 18 -27 15 -16
-3 -37 -9 -47 -13 -19 -8 -20 -3 -5 55 3 9 -4 16 -18 18 -18 3 -24 -5 -37 -51
-9 -30 -16 -61 -16 -68 0 -7 -11 -24 -23 -38 -13 -15 -32 -48 -42 -76 -24 -67
-75 -145 -127 -196 -62 -60 -178 -111 -178 -78 0 6 7 38 14 72 8 34 23 112 32
172 10 61 25 152 34 204 26 148 2 258 -75 350 -34 40 -20 40 29 -1 59 -48 96
-113 96 -167 0 -112 111 -176 199 -115 58 41 81 172 38 212 -41 39 -113 38
-139 -2 -22 -32 1 -116 31 -116 22 0 30 27 16 47 -27 38 2 65 49 47 25 -10 21
-84 -7 -125 -48 -71 -137 -40 -137 48 0 57 -34 127 -90 184 -39 40 -57 51
-133 74 -48 14 -106 28 -130 30 -23 2 -62 11 -86 20 -64 22 -228 19 -309 -7z
m319 -48 c151 -45 212 -87 259 -179 41 -81 41 -138 4 -341 -18 -102 -34 -194
-34 -205 0 -11 -14 -75 -31 -142 l-32 -123 -66 0 c-84 0 -240 28 -503 91 -114
27 -214 49 -222 49 -22 0 -26 12 -16 56 5 21 14 67 21 102 l12 63 26 -25 c80
-76 188 -54 262 54 20 30 35 59 32 66 -2 6 -18 15 -35 18 -17 3 -46 22 -65 42
-29 32 -38 35 -67 30 -25 -5 -35 -3 -40 9 -6 17 -41 20 -51 5 -3 -5 -11 -10
-16 -10 -11 0 -1 49 15 69 6 8 11 37 12 65 1 67 58 172 134 244 l55 54 76 -5
c74 -5 143 -29 165 -59 6 -7 23 -48 38 -90 36 -102 85 -157 143 -165 37 -5 46
-2 73 25 26 26 30 38 30 85 0 68 -15 111 -45 131 -30 20 -69 21 -84 3 -30 -37
-20 -128 17 -142 25 -9 37 11 24 40 -16 35 -15 65 3 65 34 0 54 -111 25 -144
-42 -52 -107 15 -154 160 -17 53 -41 81 -91 107 l-30 16 44 1 c24 0 74 -9 112
-20z m-1001 -126 c174 -52 289 -232 250 -393 -13 -54 -56 -111 -85 -111 -28 0
-199 106 -276 170 -105 88 -189 188 -189 224 0 32 48 73 116 101 69 29 111 31
184 9z m-251 -387 c76 -70 217 -166 289 -197 29 -12 52 -29 52 -37 0 -8 -25
-26 -56 -40 -76 -34 -182 -30 -263 11 -65 33 -144 105 -176 161 -48 82 -52
185 -9 250 l16 25 42 -58 c24 -31 71 -83 105 -115z m786 17 c21 5 34 0 61 -24
19 -16 39 -30 44 -30 18 0 10 -25 -15 -53 -14 -15 -28 -27 -31 -27 -3 0 -16
12 -29 28 -21 24 -30 27 -84 26 -39 -1 -61 3 -61 10 0 6 -3 20 -6 32 -4 16 2
26 28 42 30 19 34 20 50 5 11 -10 26 -13 43 -9z m-546 -78 c45 -30 104 -62
132 -72 27 -10 49 -21 49 -25 0 -14 -31 -39 -48 -39 -29 0 -221 111 -227 131
-5 16 1 59 9 59 1 0 39 -24 85 -54z m-436 -29 c32 -78 109 -152 205 -199 l85
-41 -24 -20 c-31 -25 -75 -18 -133 22 -88 61 -196 179 -196 216 0 21 26 65 38
65 4 0 15 -20 25 -43z m-34 -125 c52 -67 126 -132 181 -158 22 -10 40 -22 40
-25 0 -7 -61 -64 -548 -517 -167 -156 -314 -289 -327 -298 -20 -13 -30 -14
-59 -4 -42 14 -86 62 -86 95 0 23 93 148 443 600 184 237 290 364 302 364 6 0
30 -26 54 -57z m1076 -222 c245 -57 425 -90 501 -90 67 0 66 11 15 -220 -21
-96 -42 -210 -46 -253 -6 -72 -8 -77 -27 -71 -42 13 -174 46 -198 49 -49 6
-144 27 -184 42 -23 8 -88 20 -146 28 -109 14 -277 49 -287 59 -3 3 10 63 30
133 20 71 48 185 63 255 25 117 29 127 48 123 12 -3 116 -27 231 -55z m87
-602 l137 -33 -5 -180 c-3 -99 -8 -200 -12 -225 -6 -44 -8 -57 -11 -110 l-1
-25 -145 -3 -145 -3 0 73 c0 40 -9 154 -20 253 -11 99 -23 207 -26 239 l-6 59
48 -6 c27 -4 111 -21 186 -39z m-413 -624 c21 -4 30 -11 27 -20 -3 -7 2 -18
11 -25 13 -11 19 -9 39 14 18 22 32 27 66 27 24 0 49 -4 57 -9 10 -6 22 -5 35
5 15 10 54 14 148 14 l128 0 -7 -31 c-12 -60 39 -58 52 2 10 46 43 37 91 -24
41 -53 70 -69 85 -46 5 8 -3 25 -22 47 -17 19 -28 37 -25 39 3 3 27 -2 53 -12
49 -19 262 -121 272 -131 3 -2 -78 -4 -179 -2 -102 1 -326 1 -497 -1 l-313 -3
-150 73 c-82 40 -150 77 -150 81 0 9 233 11 279 2z"/>
<path d="M2334 4388 c-69 -72 -201 -240 -433 -547 -163 -216 -219 -297 -211
-305 14 -13 6 -23 215 256 89 119 216 285 281 368 l119 150 33 -37 c17 -20 32
-43 32 -50 0 -8 -17 -30 -38 -51 -69 -68 -554 -594 -593 -644 -42 -53 -17 -63
30 -12 20 22 163 177 319 346 156 168 290 315 297 325 13 17 15 17 52 -2 21
-11 38 -25 38 -30 0 -10 -161 -164 -538 -514 -161 -150 -197 -191 -166 -191 5
0 74 60 152 133 563 526 662 622 665 640 4 19 2 19 -31 -6 -41 -31 -63 -34
-95 -11 -29 20 -28 50 3 70 25 16 35 54 15 54 -6 0 -24 -16 -41 -35 -37 -41
-42 -42 -69 -12 -40 42 -41 51 -10 88 28 33 38 59 22 59 -4 0 -26 -19 -48 -42z"/>
<path d="M3876 2575 c-149 -41 -208 -167 -157 -335 37 -122 131 -197 257 -208
113 -9 193 38 244 142 30 60 32 72 28 139 -13 197 -180 314 -372 262z m200
-58 c117 -61 162 -213 97 -328 -61 -109 -177 -143 -290 -86 -28 15 -62 40 -77
57 -58 69 -74 237 -29 297 27 37 100 74 165 82 57 8 87 3 134 -22z"/>
<path d="M3877 2489 c-70 -37 -110 -132 -93 -222 8 -45 70 -115 120 -138 54
-24 132 -24 172 0 17 10 42 36 55 57 20 33 24 52 24 121 0 76 -2 84 -31 120
-61 77 -167 104 -247 62z m173 -47 c14 -10 36 -39 49 -65 28 -56 23 -115 -12
-169 -62 -91 -209 -58 -252 56 -14 36 -15 50 -5 87 13 47 65 104 102 112 38 8
91 -1 118 -21z"/>
<path d="M3387 2536 c-55 -15 -82 -37 -108 -88 -37 -72 -15 -184 49 -251 64
-68 193 -97 262 -59 79 44 112 195 63 288 -32 60 -83 100 -143 113 -61 13 -62
13 -123 -3z m169 -58 c100 -69 106 -240 11 -298 -111 -68 -283 62 -264 200 10
79 63 119 156 120 51 0 72 -5 97 -22z"/>
<path d="M3427 2450 c-91 -28 -108 -131 -33 -206 56 -56 134 -57 187 -4 35 35
37 70 7 130 -37 70 -97 100 -161 80z m94 -53 c38 -29 53 -113 26 -136 -22 -18
-73 -24 -96 -11 -28 14 -61 68 -61 98 0 51 86 83 131 49z"/>
<path d="M3681 1979 c-233 -46 -390 -277 -354 -523 21 -148 109 -278 227 -336
86 -43 219 -65 299 -51 242 43 404 262 370 500 -42 284 -277 462 -542 410z
m266 -73 c277 -152 313 -531 68 -718 -120 -91 -284 -101 -441 -27 -224 106
-275 452 -96 651 82 91 183 130 322 125 82 -2 102 -7 147 -31z"/>
<path d="M3675 1879 c-54 -15 -138 -73 -171 -116 -56 -73 -76 -144 -72 -249 5
-110 34 -179 106 -246 68 -63 144 -91 252 -92 104 -1 169 26 243 98 74 72 92
120 92 246 0 93 -3 111 -27 163 -37 78 -120 159 -193 186 -59 22 -172 27 -230
10z m233 -58 c59 -30 120 -95 151 -161 35 -76 36 -193 2 -263 -52 -107 -161
-177 -278 -177 -126 0 -228 61 -280 168 -39 79 -40 191 -1 273 42 91 118 156
213 180 51 14 147 3 193 -20z"/>
<path d="M3855 1760 c-6 -10 12 -29 70 -74 94 -72 99 -221 9 -309 -56 -56
-106 -68 -210 -52 -59 8 -74 -3 -43 -31 32 -28 169 -27 224 3 159 84 188 277
61 411 -47 50 -97 74 -111 52z"/>
<path d="M3703 1719 c-18 -5 -48 -26 -68 -46 -110 -113 -36 -283 122 -283 46
0 58 4 92 35 51 46 64 81 59 155 -5 69 -28 101 -93 131 -44 20 -64 22 -112 8z
m127 -64 c27 -24 43 -79 35 -118 -24 -106 -130 -139 -205 -63 -30 32 -32 39
-28 81 6 48 41 97 83 116 29 13 93 4 115 -16z"/>
</g>
</svg>
