<?xml version="1.0" encoding="utf-8"?>
<!-- Svg Vector Icons : http://www.onlinewebfonts.com/icon -->
<!DOCTYPE svg PUBLIC "-//W3C//DTD SVG 1.1//EN" "http://www.w3.org/Graphics/SVG/1.1/DTD/svg11.dtd">
<svg version="1.1" xmlns="http://www.w3.org/2000/svg" xmlns:xlink="http://www.w3.org/1999/xlink" x="0px" y="0px" viewBox="0 0 1000 1000" enable-background="new 0 0 1000 1000" xml:space="preserve">
<metadata> Svg Vector Icons : http://www.onlinewebfonts.com/icon </metadata>
<g><g transform="translate(0.000000,512.000000) scale(0.100000,-0.100000)"><path d="M4621,5016.4c-1005.8-103.5-1825.8-415.7-2590.3-986.7c-241.4-180.1-762.5-701.2-942.6-942.6C568.9,2389.8,250.9,1613.8,124.4,726.8c-32.6-226.1-32.6-980.9,0-1207c126.5-889,446.4-1672.6,965.6-2360.4c180.1-239.5,546-618.8,795.1-823.8c986.7-812.3,2285.6-1214.7,3540.5-1097.8C6563.7-4655,7581-4187.5,8403-3392.4c852.6,827.7,1366,1896.7,1477.1,3084.6C9997,947.1,9594.6,2246.1,8782.3,3232.8c-779.8,946.5-1862.2,1557.6-3098,1747.3C5490.8,5008.8,4789.6,5033.7,4621,5016.4z M5387.4,4395.7c779.8-70.9,1538.5-362.1,2176.4-835.3c254.8-189.7,678.2-613.1,867.9-867.9c431.1-580.5,689.7-1203.2,808.5-1946.5c47.9-293.1,47.9-931.1,1.9-1235.8c-115-737.6-377.4-1373.7-816.2-1963.8c-182-245.2-609.3-672.5-854.5-854.5c-588.2-436.8-1231.9-703.1-1963.8-816.2c-304.6-46-942.6-46-1235.7,1.9c-743.4,118.8-1366,377.4-1946.5,808.5c-254.8,189.7-678.2,613.1-867.9,867.9c-1136.1,1534.6-1136.1,3609.5,0,5138.4c172.4,231.8,507.7,582.4,726.1,758.7C3155.4,4156.2,4276.1,4497.2,5387.4,4395.7z"/><path d="M5057.8,2901.3l-1019.2-9.6l-67.1-65.1c-63.2-61.3-95.8-147.5-454.1-1222.3C3306.7,968.2,3128.5,449,3122.8,449c-3.8,0-44.1,21.1-88.1,46c-174.3,101.6-425.3,132.2-636.1,78.6c-160.9-42.2-281.6-115-400.4-239.5c-124.5-130.3-197.4-268.2-233.7-446.4c-90-427.2,201.2-887.1,634.2-998.2c277.8-72.8,572.9-1.9,791.3,189.7c182,159,195.4,191.6,716.5,1753l484.7,1456.1h664.8h664.8l-105.4-310.4c-57.5-172.4-191.6-578.6-297-906.2c-107.3-325.7-197.3-599.7-201.2-607.3c-5.8-7.7-72.8,17.3-151.4,55.6c-277.8,130.3-586.3,103.5-852.6-74.7c-137.9-92-264.4-251-327.6-413.8c-61.3-155.2-61.3-444.5,0-603.5c120.7-310.4,419.6-536.4,749.1-563.3c327.6-26.8,676.3,159,825.8,444.5c28.7,53.6,289.3,814.3,582.4,1693.7c511.6,1538.5,530.7,1599.8,509.6,1670.7c-46,149.4-187.8,254.8-327.6,243.3C6098.1,2912.8,5619.2,2907.1,5057.8,2901.3z M2754.9-54.9c80.5-53.6,113-115,113-214.6c0-298.9-415.8-354.4-498.1-65.1c-32.6,115,44.1,270.1,153.3,310.4C2592.1,0.7,2693.6-12.8,2754.9-54.9z M4728.3-39.6c74.7-40.2,132.2-136,132.2-220.3c0-203.1-205-327.6-381.3-233.7c-122.6,65.1-166.7,210.8-103.5,342.9C4435.2-24.3,4598,27.5,4728.3-39.6z"/><path d="M6782.1-108.5c-124.5-78.6-128.4-101.5-139.9-544.1l-9.6-402.3l-402.3-9.6c-450.2-11.5-465.6-15.3-542.2-151.3c-80.5-141.8-28.7-329.5,111.1-411.9c61.3-36.4,105.4-40.3,456-46l387-5.7v-375.5c0-304.6,5.7-385.1,30.6-438.7c86.2-180.1,327.6-226.1,471.3-90c101.5,93.9,111.1,141.8,111.1,542.2v364h341c381.3,0,465.6,15.3,555.6,101.5c111.1,107.3,120.7,277.8,21.1,404.3c-78.6,99.6-116.9,107.3-532.6,107.3h-383.2l-5.7,400.4c-5.8,446.4-9.6,457.9-149.4,553.7C7019.7-54.9,6868.3-53,6782.1-108.5z"/></g></g>
</svg>