<?xml version="1.0" encoding="UTF-8"?><svg id="Layer_1" xmlns="http://www.w3.org/2000/svg" viewBox="0 0 512 512"><defs><style>.cls-1{fill:#dd0d13;}</style></defs><path class="cls-1" d="M256,158.29c-74.59,0-135.28,60.69-135.28,135.28s60.69,135.28,135.28,135.28,135.28-60.69,135.28-135.28-60.69-135.28-135.28-135.28Zm0,255.53c-66.41,0-120.25-53.84-120.25-120.25s53.84-120.25,120.25-120.25,120.25,53.84,120.25,120.25c-.07,66.38-53.87,120.18-120.25,120.25Z"/><path d="M443.89,98.17h-45.09V30.53c0-4.15-3.38-7.52-7.54-7.51-.57,0-1.13,.07-1.68,.19L66.41,98.36c-3.41,.79-5.82,3.82-5.82,7.32V481.47c0,4.15,3.36,7.52,7.52,7.52H443.89c4.15,0,7.52-3.36,7.52-7.52V105.68c0-4.15-3.36-7.52-7.52-7.52Zm-60.13-58.18v58.18H133.61l250.16-58.18Zm52.61,433.97H75.62V113.2H436.38V473.95Z"/><path class="cls-1" d="M328.5,212.69c-1.69-1.43-3.92-2.04-6.1-1.68l-90.19,15.03c-3.62,.61-6.28,3.74-6.28,7.41v86.72c-4.56-2.66-9.75-4.06-15.03-4.05-16.6,0-30.06,13.46-30.06,30.06s13.46,30.06,30.06,30.06,30.06-13.46,30.06-30.06v-76.3l75.16-12.53v47.79c-4.56-2.66-9.75-4.06-15.03-4.05-16.6,0-30.06,13.46-30.06,30.06s13.46,30.06,30.06,30.06,30.06-13.46,30.06-30.06v-112.74c0-2.21-.97-4.3-2.66-5.73Zm-117.59,148.53c-8.3,0-15.03-6.73-15.03-15.03s6.73-15.03,15.03-15.03,15.03,6.73,15.03,15.03c-.01,8.3-6.73,15.02-15.03,15.03Zm90.19-15.03c-8.3,0-15.03-6.73-15.03-15.03s6.73-15.03,15.03-15.03,15.03,6.73,15.03,15.03c-.01,8.3-6.73,15.02-15.03,15.03Zm15.03-104.07l-75.16,12.53v-14.82l75.16-12.53v14.82Z"/><path d="M158.3,173.32v-37.58c0-4.15-3.36-7.52-7.52-7.52h-52.61c-4.15,0-7.52,3.36-7.52,7.52v37.58c0,4.15,3.36,7.52,7.52,7.52h52.61c4.15,0,7.52-3.36,7.52-7.52Zm-15.03-7.52h-37.58v-22.55h37.58v22.55Z"/><path d="M361.22,421.34c-4.15,0-7.52,3.36-7.52,7.52s3.36,7.52,7.52,7.52h52.61c4.15,0,7.52-3.36,7.52-7.52s-3.36-7.52-7.52-7.52h-52.61Z"/><path d="M413.83,443.89h-22.55c-4.15,0-7.52,3.36-7.52,7.52s3.36,7.52,7.52,7.52h22.55c4.15,0,7.52-3.36,7.52-7.52s-3.36-7.52-7.52-7.52Z"/></svg>