<?xml version="1.0" encoding="UTF-8"?><svg id="Layer_1" xmlns="http://www.w3.org/2000/svg" viewBox="0 0 512 512"><defs><style>.cls-1{fill:#dd0d13;}</style></defs><g><path d="M303.88,371.43c-6.04,.19-10.58-6.61-8.09-12.11,2.87-7.15,13.31-7.15,16.18,0,2.49,5.5-2.05,12.3-8.09,12.11h0Z"/><path d="M178.78,426.16c-2.24,0-4.49-.86-6.2-2.57l-45.35-45.35c-3.42-3.42-3.42-8.97,0-12.4,3.42-3.42,8.97-3.42,12.4,0l45.35,45.35c3.42,3.42,3.42,8.97,0,12.4-1.71,1.71-3.96,2.57-6.2,2.57Z"/><path d="M190.23,387.18c-2.24,0-4.49-.86-6.2-2.57l-17.82-17.82c-3.42-3.42-3.42-8.97,0-12.39,3.42-3.42,8.97-3.42,12.39,0l17.82,17.82c3.42,3.42,3.42,8.97,0,12.39-1.71,1.71-3.95,2.57-6.2,2.57Z"/><path d="M480.36,113.24c0-2.32-.92-4.55-2.57-6.2l-34.02-34.01c-3.42-3.42-8.97-3.42-12.39,0l-12.51,12.51-3.62-3.62c-3.42-3.42-8.97-3.42-12.4,0s-3.42,8.97,0,12.4l3.62,3.62-6.68,6.68-3.62-3.62c-3.42-3.42-8.97-3.42-12.4,0-3.42,3.42-3.42,8.97,0,12.4l3.62,3.62-70.71,70.7c-34.32-21.24-68.8-20.81-91.2,1.59-6.36,6.35-11.12,12.59-14.57,19.07-12.6,23.71-40.75,45.02-65.46,49.59-18.4,3.4-35.05,11.75-48.16,24.14-16.88,15.98-26.05,36.82-26.51,60.27-.62,31.46,14.66,65.51,41.92,93.4,27.51,28.15,61.42,44.4,93.05,44.58,.18,0,.36,0,.55,0,23.3,0,44.26-8.64,60.63-25.01,13.39-13.39,22.35-30.68,25.92-49.98,.48-2.6,1.16-5.29,2.02-7.98,1.47-4.61-1.08-9.54-5.69-11.01-4.61-1.47-9.54,1.08-11.01,5.69-1.08,3.4-1.94,6.8-2.56,10.12-2.92,15.8-10.21,29.9-21.08,40.77-13.01,13.01-29.68,19.88-48.24,19.88-.14,0-.29,0-.44,0-26.97-.16-56.35-14.48-80.61-39.31-24-24.56-37.46-54.01-36.93-80.81,.37-18.65,7.64-35.2,21.03-47.88,10.64-10.07,24.23-16.86,39.3-19.64,29.94-5.53,62.65-30.17,77.76-58.59,2.61-4.92,6.37-9.79,11.48-14.9,21.12-21.12,49.93-10.17,65.98-1.16l-71.77,71.77c-13.29-.64-26.78,4.1-36.9,14.23-9.23,9.23-14.31,21.49-14.31,34.54s5.08,25.31,14.31,34.54c9.23,9.23,21.49,14.31,34.54,14.31s25.32-5.08,34.54-14.31c10.12-10.12,14.86-23.62,14.22-36.9l71.7-71.7c8.91,16.17,19.53,45.33-2.66,67.52-3.76,3.76-8.05,6.98-12.75,9.55-2.37,1.3-4.77,2.74-7.13,4.3-4.04,2.67-5.15,8.1-2.48,12.14,1.69,2.55,4.47,3.93,7.32,3.93,1.66,0,3.34-.47,4.82-1.45,1.96-1.29,3.93-2.49,5.88-3.55,6.16-3.37,11.79-7.59,16.73-12.53,13.15-13.15,19.43-30.09,18.16-48.99-.96-14.2-6.13-29.21-15.05-43.77l70.76-70.76,5.14,5.14c1.71,1.71,3.95,2.57,6.2,2.57s4.49-.86,6.2-2.57c3.42-3.42,3.42-8.97,0-12.4l-5.14-5.14,6.68-6.68,5.14,5.14c1.71,1.71,3.95,2.57,6.2,2.57s4.49-.86,6.2-2.57c3.42-3.42,3.42-8.97,0-12.4l-5.14-5.14,12.52-12.52c1.64-1.65,2.57-3.88,2.57-6.2h0Zm-228.47,229.99c-5.92,5.92-13.78,9.17-22.15,9.17s-16.23-3.26-22.15-9.17c-12.21-12.21-12.21-32.08,0-44.29,6.11-6.11,14.13-9.16,22.15-9.16s16.04,3.05,22.15,9.16c12.21,12.21,12.21,32.08,0,44.29Zm21.47-44.15c-2.28-4.53-5.3-8.77-9.08-12.54h0c-3.77-3.77-8.02-6.8-12.54-9.08l128.99-128.99,21.62,21.61-128.99,128.99Zm141.38-141.38l-21.62-21.62,6.68-6.68,21.62,21.62-6.68,6.68Zm19.07-19.07l-21.62-21.62,6.68-6.68,21.62,21.62-6.68,6.68Zm-2.55-40.69l6.32-6.32,21.62,21.61-6.32,6.32-21.62-21.62Z"/></g><path class="cls-1" d="M159.67,101.35c0-2.82-1.36-5.48-3.66-7.12-2.3-1.65-5.24-2.09-7.92-1.18l-68.68,23.25c-3.56,1.21-5.95,4.54-5.95,8.3v66.25c-3.71-1.67-7.82-2.6-12.15-2.6-16.36,0-29.68,13.31-29.68,29.68s13.31,29.68,29.68,29.68,29.68-13.31,29.68-29.68v-87.04l51.15-17.32v54.03c-3.71-1.67-7.82-2.6-12.15-2.6-16.36,0-29.68,13.31-29.68,29.68s13.31,29.68,29.68,29.68,29.68-13.31,29.68-29.68c0-.51,0-93.32,0-93.32ZM61.32,230.08c-6.7,0-12.15-5.45-12.15-12.15s5.45-12.15,12.15-12.15,12.15,5.45,12.15,12.15c0,6.7-5.45,12.15-12.15,12.15Zm68.68-23.25c-6.7,0-12.15-5.45-12.15-12.15s5.45-12.15,12.15-12.15,12.15,5.45,12.15,12.15-5.45,12.15-12.15,12.15Z"/><path class="cls-1" d="M440.16,339.99l-29.6-10.02c-2.68-.91-5.62-.47-7.92,1.18s-3.66,4.3-3.66,7.12v66.25c-3.71-1.67-7.82-2.6-12.15-2.6-16.36,0-29.68,13.31-29.68,29.68s13.31,29.68,29.68,29.68,29.68-13.31,29.68-29.68v-81.1l18.02,6.1c4.58,1.55,9.56-.91,11.11-5.49,1.55-4.59-.91-9.56-5.49-11.11h0Zm-53.32,103.75c-6.7,0-12.15-5.45-12.15-12.15s5.45-12.15,12.15-12.15,12.15,5.45,12.15,12.15-5.45,12.15-12.15,12.15Z"/><path class="cls-1" d="M271.21,125.94c-1.73,0-3.45-.51-4.94-1.52-6.18-4.22-37.4-25.83-44.65-37.1-3.16-4.91-7.28-12.7-6.57-23.64,1.17-18.16,16.03-32.23,33.82-32.04,10,.11,17.95,5.42,23.22,10.39,5.39-4.78,13.39-9.89,22.93-9.89,.1,0,.19,0,.29,0,17.8,.19,32.35,14.58,33.12,32.76,.47,10.93-3.81,18.64-7.07,23.48-7.54,11.2-39.11,32.07-45.36,36.13-1.45,.95-3.12,1.42-4.78,1.42Zm-22.69-76.77c-8.27,0-15.42,6.98-15.98,15.64-.29,4.58,.81,8.35,3.82,13.03,3.5,5.44,21.15,19.03,34.96,28.76,13.97-9.4,31.84-22.58,35.48-27.99,3.11-4.62,4.3-8.37,4.1-12.95-.37-8.72-7.46-15.89-15.8-15.98-6.98-.06-14.53,8.35-16.16,10.61-1.69,2.35-4.42,3.7-7.33,3.64-2.89-.07-5.57-1.57-7.14-3.99-1.95-2.94-8.63-10.68-15.8-10.76-.05,0-.11,0-.16,0Z"/></svg>