<?xml version="1.0" encoding="UTF-8"?><svg id="Layer_1" xmlns="http://www.w3.org/2000/svg" viewBox="0 0 512 512"><defs><style>.cls-1{fill:none;}.cls-2{fill:#dd0d13;}</style></defs><g><path class="cls-2" d="M93.91,397.35v29.76c0,4.11,3.33,7.44,7.44,7.44h51.61v-14.88h-44.17v-14.88h44.17v-14.88h-51.61c-4.11,0-7.44,3.33-7.44,7.44Z"/><path class="cls-2" d="M156.34,463.2c-4.28,.73-8.62,1.11-12.96,1.11h-17.11c-41.26,0-75.81-32.37-77-72.14-.51-16.95,4.79-33.57,15.01-47.09,17.19-22.73,17.71-50.12,15.12-69.12-.32-2.28-.43-4.58-.31-6.88,.78-16.59,13.28-30.46,29.69-34.29v52.91c-17.44,14.36-19.93,40.13-5.57,57.57,12.1,14.7,32.73,19.08,49.74,10.63v-.23c-.41-6.78,.78-16.37,1.13-18.99-9.38,10.38-25.37,11.51-36.11,2.4-10.96-9.29-12.31-25.71-3.02-36.67,1.57-1.85,3.38-3.47,5.4-4.81,11.95-7.99,28.13-4.78,36.12,7.17,2.86,4.28,4.39,9.31,4.39,14.46,0,.51-.02,1.03-.06,1.54,4-5.56,9.01-9.63,13.45-12.47-2.22-8.09-6.89-15.3-13.39-20.62v-52.91c16.41,3.83,28.9,17.71,29.69,34.33,.11,2.3,0,4.6-.32,6.88-1.2,8.63-1.42,17.37-.67,26.05l14.69-2.79c-.5-7.09-.26-14.21,.71-21.25,.45-3.19,.6-6.42,.44-9.64-1.16-24.43-20.17-44.65-44.55-48.75V123.3l7.06-21.17c.25-.76,.38-1.55,.38-2.35v-7.44h14.88v-14.88h-14.88v-14.88h14.88v-14.88h-14.88v-7.44c0-4.11-3.33-7.44-7.44-7.44h-52.08c-4.11,0-7.44,3.33-7.44,7.44v7.44h-14.88v14.88h14.88v14.88h-14.88v14.88h14.88v7.44c0,.8,.13,1.59,.38,2.35l7.06,21.17v96.32c-24.38,4.1-43.39,24.32-44.55,48.71-.16,3.22-.02,6.46,.43,9.65,2.21,16.2,1.87,39.44-12.27,58.14-12.27,16.22-18.62,36.14-18.01,56.47,.75,23.53,10.98,45.77,28.36,61.65,17.25,16.06,39.95,24.97,63.52,24.94h17.11c8.37,.01,16.7-1.14,24.76-3.41-5.97-3.42-9.6-8.1-11.8-12.58Zm-10.36-183.32c-7.29-2.08-15.02-2.08-22.32,0V129.53h22.32v150.35ZM116.22,47.7h37.2v50.87l-5.36,16.09h-26.47l-5.36-16.09V47.7Z"/></g><polygon class="cls-1" points="144.95 114.65 150.31 98.56 150.31 47.7 113.12 47.7 113.12 98.56 118.48 114.65 144.95 114.65"/><path class="cls-1" d="M370.62,68.47c-1.96-12-12.34-20.8-24.5-20.77-8.31,.02-16.07,4.17-20.69,11.08-.99,1.48-2.27,2.76-3.75,3.75-6.32,4.25-14.88,2.58-19.14-3.73-4.62-6.92-12.38-11.08-20.7-11.1-12.15-.02-22.52,8.77-24.49,20.75-.49,2.99-.93,6-1.3,9h115.87c-.37-3-.8-6.01-1.29-8.98Z"/><path class="cls-1" d="M388.38,159.29v29.76c8.22,0,14.88-6.66,14.88-14.88s-6.66-14.88-14.88-14.88Z"/><path class="cls-1" d="M224.71,174.17c0,8.21,6.67,14.87,14.88,14.88v-29.76c-8.21,0-14.87,6.67-14.88,14.88Z"/><path class="cls-1" d="M401.98,122.09H225.98c3.16,8.91,11.59,14.87,21.04,14.88h133.91c9.46-.01,17.88-5.97,21.04-14.88Z"/><rect class="cls-1" x="105.68" y="404.79" width="44.17" height="14.88"/><path class="cls-1" d="M153.36,304.78c-7.99-11.95-24.16-15.17-36.12-7.17-2.01,1.35-3.83,2.96-5.4,4.81-9.29,10.96-7.94,27.37,3.02,36.67,10.75,9.11,26.73,7.98,36.11-2.4,.06-.42,.09-.67,.09-.69,1.17-5.99,3.61-11.03,6.63-15.22,.03-.51,.05-1.03,.06-1.54,0-5.15-1.53-10.18-4.39-14.46Z"/><path class="cls-1" d="M187.13,275.99c.32-2.28,.43-4.58,.32-6.88-.79-16.62-13.28-30.5-29.69-34.33v52.91c6.5,5.32,11.17,12.53,13.39,20.62,5.91-3.78,10.81-5.39,10.92-5.43l4.4-.83c-.75-8.68-.53-17.42,.67-26.05Z"/><path class="cls-1" d="M373.23,92.33h-118.5c-.09,1.74-.26,10.44-.26,10.49v4.39h119.03s-.18-13.14-.26-14.88Z"/><polygon class="cls-1" points="412.95 397.35 462.77 397.35 462.77 382.47 435.27 382.47 412.95 397.35"/><path class="cls-1" d="M185.26,449.43h-20.07c-.05,4.74,2.21,9.2,6.06,11.97,2.56,1.88,5.65,2.9,8.82,2.91h29.76c-1.47,0-2.9-.43-4.13-1.25l-20.44-13.63Z"/><path class="cls-1" d="M235.46,410.98l-42.76-28.51h-27.51v52.08h22.32c1.47,0,2.9,.43,4.13,1.25l20.44,13.63h42.38c.25,0,.5,.01,.74,.04l148.42,14.84h44.26c8.21,0,14.87-6.67,14.88-14.88v-37.2H239.59c-1.47,0-2.9-.43-4.13-1.25Z"/><path class="cls-1" d="M438.5,317.14l-59.1-11.08-3.03,12.47c-5.66,23.36-23.9,41.59-47.26,47.26-34.46,8.36-69.16-12.8-77.52-47.26l-3.03-12.47-59.1,11.08c-7.4,1.39-14,5.54-18.46,11.61-.05,.08-.09,.15-.15,.22,.03-.05,.06-.1,.09-.15-.13,.18-.27,.37-.4,.55,.04-.05,.09-.1,.12-.15-.07,.09-.14,.19-.22,.28-3.43,4.96-5.27,10.86-5.26,16.89v21.2h29.76c1.47,0,2.9,.43,4.13,1.25l42.76,28.51h144.29l42.76-28.51c1.22-.81,2.66-1.25,4.13-1.25h29.76v-21.2c0-14.32-10.2-26.6-24.27-29.25Zm-267.83,12.08c.06-.08,.12-.17,.19-.25-.06,.09-.12,.17-.19,.25Z"/><path class="cls-1" d="M280.92,253.39c.1,.07,.2,.14,.3,.21l.13,.08c.16,.09,.31,.18,.45,.26,.07,.04,.13,.08,.2,.12,9.59,6.14,20.74,9.4,32.12,9.38,32.83-.04,59.41-26.68,59.38-59.52v-51.8l-.24-.28h-118.55l-.24,.28v51.8c-.02,19.88,9.91,38.44,26.45,49.46Zm66.54-94.1c6.16,0,11.16,5,11.16,11.16s-5,11.16-11.16,11.16c-6.16,0-11.15-5-11.16-11.16,0-6.16,5-11.16,11.16-11.16Zm-14.91,45.65l7.5,12.85c-9.34,5.45-21.61,8.45-34.54,8.45h-13.85v-14.88h13.85c10.18,0,20.04-2.34,27.04-6.43Zm-52.05-45.65c6.16,0,11.16,5,11.16,11.16s-5,11.16-11.16,11.16c-6.16,0-11.15-5-11.16-11.16,0-6.16,5-11.16,11.16-11.16Z"/><path class="cls-1" d="M302.35,351.32c26.47,6.42,53.13-9.83,59.56-36.3l2.84-11.71-8.87-1.66c-7.04-1.32-12.14-7.46-12.14-14.62v-14.92c-18.97,8.3-40.55,8.28-59.52-.03v14.95c0,7.16-5.11,13.3-12.14,14.62l-8.87,1.66,2.85,11.71c4.35,17.94,18.36,31.95,36.3,36.3Z"/><path d="M280.5,181.61c6.16,0,11.16-5,11.16-11.16s-5-11.16-11.16-11.16-11.16,5-11.16,11.16c0,6.16,5,11.15,11.16,11.16Z"/><path d="M347.46,181.61c6.16,0,11.16-5,11.16-11.16s-5-11.16-11.16-11.16-11.16,5-11.16,11.16c0,6.16,5,11.15,11.16,11.16Z"/><path d="M291.66,226.24h13.85c12.93,0,25.19-3,34.54-8.45l-7.5-12.85c-7,4.08-16.86,6.43-27.04,6.43h-13.85v14.88Z"/><path d="M441.24,302.51l-82.62-15.49v-23.61c18.75-14.02,29.78-36.07,29.76-59.48,16.43,0,29.75-13.33,29.75-29.77,0-12.02-7.23-22.85-18.33-27.47,11.35-6.68,18.33-18.87,18.34-32.04,0-4.11-3.33-7.44-7.44-7.44h-22.32v-4.89c-.01-6.36-.26-12.29-.77-18.09-.54-6.04-1.31-12.16-2.3-18.16-1.5-9.3-6.28-17.76-13.48-23.84-16.75-14.19-41.83-12.11-56.02,4.64-.63,.75-1.24,1.52-1.82,2.32-12.91-17.76-37.77-21.69-55.52-8.78-.79,.58-1.56,1.18-2.31,1.81-7.2,6.07-11.98,14.53-13.48,23.83-.99,6.03-1.77,12.14-2.3,18.19-.51,5.79-.75,11.71-.77,18.08v4.89h-22.32c-4.11,0-7.44,3.33-7.44,7.44,0,13.17,6.98,25.36,18.34,32.04-15.17,6.31-22.36,23.73-16.04,38.91,4.62,11.09,15.45,18.32,27.47,18.33-.02,23.41,11.01,45.46,29.76,59.48v23.61l-57.73,10.83,.07,.36-29.39,5.57c-.2,.07-25.62,8.42-30.3,32.37-.01,.09-1.68,11.69-1.21,19.49v93.78c0,.21-.28,20.37,19.43,27.76l.24,.09,.06,.29c3.07,1.05,6.3,1.61,9.56,1.62h44.64c.25,0,.5-.01,.74-.04l88.53-8.85,88.53,8.85c.25,.03,.5,.04,.74,.04h44.64c16.43-.02,29.74-13.33,29.76-29.76v-103.04c-.01-21.48-15.3-39.91-36.41-43.88Zm-37.98-128.35c0,8.22-6.66,14.88-14.88,14.88v-29.76c8.22,0,14.88,6.66,14.88,14.88Zm-145.91-105.72c1.97-11.99,12.35-20.78,24.49-20.75,8.32,.02,16.08,4.19,20.7,11.1,4.25,6.32,12.82,7.99,19.14,3.73,1.48-1,2.75-2.27,3.75-3.75,4.62-6.91,12.38-11.06,20.69-11.08,12.16-.02,22.54,8.78,24.5,20.77,.49,2.98,.92,5.98,1.29,8.98h-115.87c.38-3.01,.81-6.01,1.3-9Zm-2.88,34.37s.18-8.75,.26-10.49h118.5c.09,1.74,.26,14.88,.26,14.88h-119.03v-4.39Zm-14.88,86.22c-8.21,0-14.87-6.67-14.88-14.88,0-8.21,6.67-14.87,14.88-14.88v29.76Zm-13.6-66.96h176c-3.16,8.91-11.59,14.87-21.04,14.88H247.03c-9.46-.01-17.88-5.97-21.04-14.88Zm28.48,81.83v-51.8l.24-.28h118.55l.24,.28v51.8c.04,32.83-26.54,59.48-59.38,59.52-11.39,.01-22.54-3.24-32.12-9.38-.06-.04-.13-.08-.2-.12-.15-.09-.3-.17-.45-.26l-.13-.08c-.1-.07-.2-.14-.3-.21-16.54-11.02-26.47-29.59-26.45-49.46Zm17.62,97.72c7.04-1.32,12.14-7.46,12.14-14.62v-14.95c18.97,8.31,40.54,8.33,59.52,.03v14.92c0,7.16,5.11,13.3,12.14,14.62l8.87,1.66-2.84,11.71c-6.42,26.47-33.09,42.72-59.56,36.3-17.94-4.35-31.95-18.36-36.3-36.3l-2.85-11.71,8.87-1.66Zm-92.01,162.66c-3.17-.01-6.26-1.03-8.82-2.91-3.85-2.76-6.11-7.23-6.06-11.97h20.07l20.44,13.63c1.22,.81,2.66,1.25,4.13,1.25h-29.76Zm282.7-14.88c0,8.21-6.67,14.87-14.88,14.88h-44.26l-148.42-14.84c-.25-.03-.5-.04-.74-.04h-42.38l-20.44-13.63c-1.22-.81-2.66-1.25-4.13-1.25h-22.32v-52.08h27.51l42.76,28.51c1.22,.81,2.66,1.25,4.13,1.25h223.18v37.2Zm0-52.08h-49.82l22.32-14.88h27.51v14.88Zm0-29.76h-29.76c-1.47,0-2.9,.43-4.13,1.25l-42.76,28.51H241.84l-42.76-28.51c-1.22-.81-2.66-1.25-4.13-1.25h-29.76v-21.2c0-6.03,1.83-11.93,5.26-16.89,.08-.09,.15-.19,.22-.28-.04,.05-.08,.09-.12,.15,.13-.19,.27-.37,.4-.55-.03,.05-.06,.1-.09,.15,.05-.07,.1-.15,.15-.22,4.46-6.07,11.06-10.22,18.46-11.61l59.1-11.08,3.03,12.47c8.36,34.46,43.06,55.61,77.52,47.26,23.36-5.66,41.59-23.9,47.26-47.26l3.03-12.47,59.1,11.08c14.07,2.65,24.26,14.94,24.27,29.25v21.2Z"/></svg>