<?xml version="1.0" encoding="UTF-8"?><svg id="Layer_1" xmlns="http://www.w3.org/2000/svg" viewBox="0 0 512 512"><defs><style>.cls-1,.cls-2{fill:#dd0d13;}.cls-2{stroke:#dd0d13;stroke-miterlimit:10;stroke-width:2px;}</style></defs><g id="Calendar"><path d="M402.54,78.48h-15.96v-14.38c0-15.89-12.88-28.77-28.77-28.77s-28.77,12.88-28.77,28.77v14.38h-57.54v-14.38c0-15.89-12.88-28.77-28.77-28.77s-28.77,12.88-28.77,28.77v14.38h-57.54v-14.38c0-15.89-12.88-28.77-28.77-28.77s-28.77,12.88-28.77,28.77v14.38h-15.96c-19.86,0-35.96,16.1-35.96,35.96V402.14c0,19.86,16.1,35.96,35.96,35.96h181.38c3.97,0,7.19-3.22,7.19-7.19s-3.22-7.19-7.19-7.19H82.92c-11.9-.04-21.54-9.68-21.58-21.58V179.17H424.12v102.27c0,3.97,3.22,7.19,7.19,7.19s7.19-3.22,7.19-7.19V114.44c0-19.86-16.1-35.96-35.96-35.96Zm-59.11-14.38c0-7.94,6.44-14.38,14.38-14.38s14.38,6.44,14.38,14.38v43.15c0,7.94-6.44,14.38-14.38,14.38s-14.38-6.44-14.38-14.38v-43.15Zm-115.08,0c0-7.94,6.44-14.38,14.38-14.38s14.38,6.44,14.38,14.38v43.15c0,7.94-6.44,14.38-14.38,14.38s-14.38-6.44-14.38-14.38v-43.15Zm-115.08,0c0-7.94,6.44-14.38,14.38-14.38s14.38,6.44,14.38,14.38v43.15c0,7.94-6.44,14.38-14.38,14.38s-14.38-6.44-14.38-14.38v-43.15Zm310.85,100.69H61.35v-50.35c.04-11.9,9.68-21.54,21.58-21.58h15.96v14.38c0,15.89,12.88,28.77,28.77,28.77s28.77-12.88,28.77-28.77v-14.38h57.54v14.38c0,15.89,12.88,28.77,28.77,28.77s28.77-12.88,28.77-28.77v-14.38h57.54v14.38c0,15.89,12.88,28.77,28.77,28.77s28.77-12.88,28.77-28.77v-14.38h15.96c11.9,.04,21.54,9.68,21.58,21.58v50.35Z"/><path d="M228.35,229.52c0-7.94-6.44-14.38-14.38-14.38h-28.77c-7.94,0-14.38,6.44-14.38,14.38v21.58c0,7.94,6.44,14.38,14.38,14.38h28.77c7.94,0,14.38-6.44,14.38-14.38v-21.58Zm-43.15,21.58v-21.58h28.77v21.58h-28.77Z"/><path d="M142.04,229.52c0-7.94-6.44-14.38-14.38-14.38h-28.77c-7.94,0-14.38,6.44-14.38,14.38v21.58c0,7.94,6.44,14.38,14.38,14.38h28.77c7.94,0,14.38-6.44,14.38-14.38v-21.58Zm-43.15,21.58v-21.58h28.77v21.58h-28.77Z"/><path d="M386.58,265.48c7.94,0,14.38-6.44,14.38-14.38v-21.58c0-7.94-6.44-14.38-14.38-14.38h-28.77c-7.94,0-14.38,6.44-14.38,14.38v21.58c0,7.94,6.44,14.38,14.38,14.38h28.77Zm-28.77-35.96h28.77v21.58h-28.77v-21.58Z"/><path d="M228.35,297.25c0-7.94-6.44-14.38-14.38-14.38h-28.77c-7.94,0-14.38,6.44-14.38,14.38v21.58c0,7.94,6.44,14.38,14.38,14.38h28.77c7.94,0,14.38-6.44,14.38-14.38v-21.58Zm-43.15,21.58v-21.58h28.77v21.58h-28.77Z"/><path d="M142.04,297.25c0-7.94-6.44-14.38-14.38-14.38h-28.77c-7.94,0-14.38,6.44-14.38,14.38v21.58c0,7.94,6.44,14.38,14.38,14.38h28.77c7.94,0,14.38-6.44,14.38-14.38v-21.58Zm-43.15,21.58v-21.58h28.77v21.58h-28.77Z"/><path d="M213.96,350.6h-28.77c-7.94,0-14.38,6.44-14.38,14.38v21.58c0,7.94,6.44,14.38,14.38,14.38h28.77c7.94,0,14.38-6.44,14.38-14.38v-21.58c0-7.94-6.44-14.38-14.38-14.38Zm-28.77,35.96v-21.58h28.77v21.58h-28.77Z"/><path d="M271.5,265.48h28.77c7.94,0,14.38-6.44,14.38-14.38v-21.58c0-7.94-6.44-14.38-14.38-14.38h-28.77c-7.94,0-14.38,6.44-14.38,14.38v21.58c0,7.94,6.44,14.38,14.38,14.38Zm0-35.96h28.77v21.58h-28.77v-21.58Z"/><path d="M127.65,350.6h-28.77c-7.94,0-14.38,6.44-14.38,14.38v21.58c0,7.94,6.44,14.38,14.38,14.38h28.77c7.94,0,14.38-6.44,14.38-14.38v-21.58c0-7.94-6.44-14.38-14.38-14.38Zm-28.77,35.96v-21.58h28.77v21.58h-28.77Z"/></g><g><path class="cls-2" d="M370.23,287.06c-52.28,0-94.81,42.53-94.81,94.81s42.53,94.81,94.81,94.81,94.81-42.53,94.81-94.81-42.53-94.81-94.81-94.81Zm0,179.08c-46.54,0-84.27-37.73-84.27-84.27s37.73-84.27,84.27-84.27,84.27,37.73,84.27,84.27c-.05,46.52-37.75,84.22-84.27,84.27Z"/><path class="cls-1" d="M421.04,325.18c-1.18-1-2.74-1.43-4.27-1.18l-63.21,10.53c-2.54,.42-4.4,2.62-4.4,5.19v60.78c-3.2-1.86-6.83-2.84-10.53-2.84-11.64,0-21.07,9.43-21.07,21.07s9.43,21.07,21.07,21.07,21.07-9.43,21.07-21.07v-53.47l52.67-8.78v33.49c-3.2-1.86-6.83-2.84-10.53-2.84-11.64,0-21.07,9.43-21.07,21.07s9.43,21.07,21.07,21.07,21.07-9.43,21.07-21.07v-79.01c0-1.55-.68-3.02-1.86-4.02Zm-82.41,104.09c-5.82,0-10.53-4.72-10.53-10.53s4.72-10.53,10.53-10.53,10.53,4.72,10.53,10.53c0,5.81-4.72,10.53-10.53,10.53Zm63.21-10.53c-5.82,0-10.53-4.72-10.53-10.53s4.72-10.53,10.53-10.53,10.53,4.72,10.53,10.53c0,5.81-4.72,10.53-10.53,10.53Zm10.53-72.94l-52.67,8.78v-10.39l52.67-8.78v10.39Z"/></g></svg>