<svg xmlns="http://www.w3.org/2000/svg" xmlns:xlink="http://www.w3.org/1999/xlink" version="1.1" preserveAspectRatio="xMidYMid meet" viewBox="865 408.37 120 59.03">  <g data-item-type="image" data-item="Image" data-logo-item="" id="logo__item--logo_0" class="logo__item">    <g class="logo__item__inner" transform="translate(856.8819627372161 368.5) scale(1.3696895882660138 1.3696895882660138) rotate(0 0 0)">      <g>        <g>          <g>            <path fill="#263676" d="M30.639,60.646c2.325-1.006,4.622-2.035,7.104-2.968c0.622-0.236,1.258-0.469,1.941-0.68     c0.349-0.109,0.705-0.221,1.101-0.312c0.403-0.092,0.834-0.186,1.449-0.226l0.253-0.011h0.061l0.157,0.008h0.096     c0.3,0.02,0.533,0.061,0.813,0.14c0.301,0.089,0.649,0.223,1.066,0.517c0.41,0.279,0.827,0.745,1.067,1.24     c0.246,0.479-3.392,1.781-3.371,2.116c0.047,0.718,0.752,1.313,0.677,1.603c-0.171,0.55,0.464,1.084,0.335,1.341     c-0.13,0.249,1.867-0.862,1.757-0.68c-0.266,0.423-0.52,0.778-0.758,1.113l1.524-0.437c2.482-0.656,4.971-1.272,7.521-1.819     c1.278-0.257,2.57-0.5,3.932-0.7c0.689-0.097,1.374-0.186,2.215-0.223c0.212-0.014,0.451-0.018,0.718-0.014     c0.294,0.014,0.581,0.014,1.183,0.15c0.117,0.023,0.377,0.106,0.581,0.185c0.11,0.044,0.302,0.14,0.444,0.219     c0.089,0.055,0.137,0.081,0.246,0.157c0.123,0.078,0.233,0.171,0.342,0.266c0.109,0.094,0.212,0.195,0.309,0.302     c0.129,0.146,0.252,0.321,0.369,0.499c0.108,0.178,0.205,0.365,0.273,0.561c0.081,0.208,0.144,0.431,0.178,0.649     c0.048,0.212,0.061,0.486,0.055,0.636c-0.007,0.172-0.021,0.345-0.055,0.517c-0.021,0.153-0.068,0.365-0.103,0.468     c-0.015,0.034-0.028,0.068-0.041,0.103c2.488-0.42,5.113-0.539,7.644-0.205c1.367,0.178,2.693,0.454,3.945,0.766l1.858,0.486     l0.834,0.211l0.861,0.172c0.035,0.003,0.063,0.006,0.104,0.011c0.416-2.035,0.642-4.147,0.642-6.308     c0-17.335-14.063-31.389-31.394-31.389c-17.339,0-31.403,14.053-31.403,31.389c0,1.945,0.206,3.836,0.547,5.682     C22.052,64.423,26.332,62.549,30.639,60.646z" data-part-id="logo__item--logo_0__0"></path>          </g>        </g>        <path fill="#C7203B" d="M35.583,62.61c-0.144,0.312-0.308,0.646-0.451,1.107c0.499-1.019,0.963-2.058,1.585-3.009   c0.609-0.93,1.299-1.784,1.75-2.809c0.185-0.429,0.582-0.691,1.033-0.794c0.396-0.517,0.758-1.052,1.155-1.579   c0.328-0.466,0.725-0.861,1.115-1.262c-0.362,0.045-0.69,0.106-0.985,0.172c-0.396,0.092-0.752,0.2-1.101,0.307   c-0.683,0.216-1.319,0.448-1.941,0.68c-2.482,0.938-4.779,1.963-7.104,2.971c-4.615,2.035-9.182,4.059-13.831,5.908   c-1.19,0.482-2.264,0.898-3.412,1.228c-1.142,0.324-2.29,0.54-3.398,0.529c-1.094-0.017-2.14-0.346-2.817-1.221   c-0.697-0.867-0.929-2.167-0.861-3.425c-0.233,0.595-0.369,1.237-0.39,1.906c-0.021,0.661,0.062,1.365,0.356,2.032   c0.287,0.67,0.793,1.268,1.415,1.694c0.616,0.438,1.313,0.715,2.01,0.89c2.81,0.663,5.565,0.116,8.067-0.403   c5.025-1.063,9.948-2.53,14.782-4.079c1.04-0.334,2.078-0.677,3.117-1.011C35.644,62.501,35.617,62.549,35.583,62.61z" data-part-id="logo__item--logo_0__1"></path>        <path fill="#C7203B" d="M79.222,64.542l-0.861-0.168l-0.834-0.208l-1.858-0.488c-1.252-0.314-2.578-0.589-3.945-0.766   c-2.53-0.335-5.155-0.221-7.644,0.205c0.013-0.035,0.026-0.073,0.041-0.104c0.034-0.102,0.082-0.308,0.103-0.472   c0.034-0.167,0.048-0.342,0.055-0.513c0.006-0.151-0.007-0.424-0.055-0.636c-0.034-0.223-0.097-0.444-0.178-0.649   c-0.068-0.198-0.165-0.383-0.273-0.564c-0.117-0.175-0.24-0.353-0.369-0.495c-0.097-0.11-0.199-0.21-0.309-0.309   c-0.108-0.092-0.219-0.178-0.342-0.264c-0.109-0.074-0.157-0.099-0.246-0.152c-0.143-0.079-0.334-0.178-0.444-0.22   c-0.204-0.082-0.464-0.163-0.581-0.184c-0.602-0.137-0.889-0.134-1.183-0.151c-0.267-0.006-0.506,0-0.718,0.007   c-0.841,0.046-1.525,0.137-2.215,0.229c-1.361,0.203-2.653,0.441-3.932,0.702c-2.55,0.547-5.039,1.166-7.521,1.822l-1.524,0.43   c0.239-0.331,0.492-0.688,0.758-1.106c0.11-0.186,0.233-0.38,0.37-0.631c0.13-0.256,0.287-0.525,0.444-1.08   c0.076-0.289,0.191-0.651,0.151-1.369c-0.021-0.336-0.116-0.821-0.362-1.303c-0.109-0.226-0.267-0.441-0.431-0.639   c-0.068,0.129-0.129,0.266-0.226,0.383c-0.649,0.806-1.422,1.452-2.017,2.31c-0.314,0.466-0.65,0.923-0.999,1.364   c-0.021,0.266-0.082,0.544-0.273,0.831c-1.032,1.523-1.894,2.626-2.181,4.515c-0.212,1.379-0.028,2.821,0.095,4.205   c0.014,0.175-0.02,0.312-0.047,0.454c0.95,0.015,1.627-0.102,2.297-0.218c0.759-0.145,1.45-0.317,2.127-0.502l3.616-0.984   c1.634-0.448,3.281-0.872,4.923-1.272c0,0.021,0,0.038,0,0.064c0.075,0.547,0.321,1.125,0.608,1.525   c0.608,0.824,1.196,1.104,1.613,1.306c0.424,0.192,0.76,0.276,1.06,0.342c1.156,0.219,1.929,0.157,2.722,0.109   c0.772-0.068,1.497-0.178,2.201-0.321c1.381-0.277,2.811-0.756,3.842-1.07c2.243-0.659,4.445-1.06,6.742-1.069   c1.155-0.018,2.337,0.075,3.576,0.185l1.866,0.178l0.491,0.048l0.541,0.041c0.342,0.02,0.684,0.034,1.031,0.034   c2.715,0,5.374-0.414,7.884-1.259c1.252-0.424,2.469-0.938,3.609-1.572c1.128-0.653,2.202-1.398,3.118-2.289   C88.951,65.031,83.851,65.317,79.222,64.542z" data-part-id="logo__item--logo_0__2"></path>        <path fill="#C7203B" d="M71.716,42.033l-2.804-0.834c-0.745-0.219-1.969-0.188-2.7,0.07l-1.244,0.438   c-0.731,0.26-1.962,0.333-2.728,0.161l-3.419-0.766c-0.767-0.172-1.784-0.126-2.264,0.098c-0.485,0.224-0.376,0.812,0.232,1.297   l0.779,0.617c0.609,0.491,0.514,1.126-0.204,1.421l-2.106,0.849c-0.725,0.294-1.798,0.114-2.386-0.402l-1.081-0.947   c-0.588-0.512-1.64-0.662-2.351-0.325l-0.042,0.021c-0.704,0.335-1.025,1.195-0.711,1.909l0.677,1.511   c-2.269,1.265-4.402,2.757-6.337,4.438c-2.872,2.502-5.442,5.395-7.248,8.793c-0.868,1.698-1.579,3.549-1.64,5.531   c-0.11,1.976,0.882,4.084,2.782,4.9c1.442,0.657,3.001,0.743,4.512,0.589c0.076,0.042,0.137,0.11,0.219,0.146   c1.797,0.824,3.787,0.763,5.626,0.441c1.859-0.314,3.631-0.961,5.333-1.717c-1.736,0.672-3.535,1.219-5.374,1.44   c-1.613,0.202-3.309,0.14-4.772-0.448c0.027-0.006,0.055-0.006,0.082-0.011c1.86-0.317,3.638-0.959,5.333-1.712   c-1.736,0.667-3.535,1.217-5.374,1.436c-0.205,0.027-0.417,0.03-0.628,0.048c-0.376-0.205-0.718-0.464-1.005-0.738   c-0.314-0.354-0.567-0.663-0.745-1.066c-0.376-0.776-0.485-1.665-0.417-2.537c0.137-1.763,0.882-3.466,1.791-5.024   c1.853-3.124,4.465-5.785,7.33-8.03c1.688-1.319,3.473-2.472,5.346-3.47c0.232-0.034,0.451-0.087,0.643-0.164l16.942-7.015   C72.488,42.681,72.468,42.257,71.716,42.033z M47.759,52.321c-2.878,2.509-5.442,5.401-7.247,8.796   c-0.868,1.698-1.579,3.544-1.641,5.526c-0.095,1.703,0.664,3.447,2.079,4.438c-1.326,0.021-2.639-0.175-3.773-0.771   c-0.39-0.208-0.739-0.481-1.026-0.758c-0.321-0.355-0.575-0.664-0.752-1.07c-0.375-0.772-0.485-1.662-0.417-2.537   c0.137-1.764,0.889-3.463,1.785-5.021c1.867-3.124,4.478-5.787,7.336-8.03c1.997-1.563,4.136-2.908,6.392-4.007   c0.294,0.278,0.603,0.514,0.902,0.665C50.132,50.413,48.901,51.33,47.759,52.321z" data-part-id="logo__item--logo_0__3"></path>        <polygon fill="#FFFFFF" points="66.602,47.926 67.518,50.232 69.883,49.507 68.652,51.661 70.704,53.059 68.249,53.436    68.427,55.907 66.602,54.225 64.783,55.907 64.968,53.436 62.506,53.059 64.557,51.661 63.32,49.507 65.692,50.232  " data-part-id="logo__item--logo_0__4"></polygon>        <polygon fill="#FFFFFF" points="53.905,31.159 54.384,32.388 55.649,32 54.992,33.143 56.08,33.892 54.773,34.088 54.869,35.404    53.905,34.51 52.935,35.404 53.03,34.088 51.724,33.892 52.812,33.143 52.155,32 53.42,32.388  " data-part-id="logo__item--logo_0__5"></polygon>        <polygon fill="#FFFFFF" points="48.662,30.081 49.03,31.005 49.981,30.716 49.489,31.574 50.302,32.135 49.325,32.285    49.393,33.274 48.662,32.602 47.937,33.274 48.005,32.285 47.027,32.135 47.848,31.574 47.349,30.716 48.299,31.005  " data-part-id="logo__item--logo_0__6"></polygon>        <polygon fill="#FFFFFF" points="45.94,42.117 45.995,43.106 46.986,43.13 46.241,43.793 46.849,44.584 45.865,44.416    45.619,45.378 45.141,44.51 44.238,44.917 44.621,44 43.732,43.549 44.689,43.275 44.491,42.301 45.304,42.878  " data-part-id="logo__item--logo_0__7"></polygon>        <polygon fill="#FFFFFF" points="50.404,36.921 50.65,37.54 51.287,37.344 50.952,37.924 51.506,38.298 50.85,38.397 50.897,39.064    50.404,38.613 49.919,39.064 49.967,38.397 49.304,38.298 49.858,37.924 49.522,37.344 50.159,37.54  " data-part-id="logo__item--logo_0__8"></polygon>        <polygon fill="#FFFFFF" points="42.83,32.788 43.082,33.406 43.718,33.211 43.384,33.789 43.93,34.166 43.281,34.265    43.322,34.929 42.83,34.478 42.351,34.929 42.399,34.265 41.736,34.166 42.29,33.789 41.954,33.211 42.59,33.406  " data-part-id="logo__item--logo_0__9"></polygon>      </g>    </g>  </g>  <g data-item-type="image" data-item="Image" data-logo-item="" id="logo__item--logo_0" class="logo__item">    <g class="logo__item__inner" transform="translate(856.8819627372161 368.5) scale(1.3696895882660138 1.3696895882660138) rotate(0 0 0)">      <g>        <g>          <g>            <path fill="#263676" d="M30.639,60.646c2.325-1.006,4.622-2.035,7.104-2.968c0.622-0.236,1.258-0.469,1.941-0.68     c0.349-0.109,0.705-0.221,1.101-0.312c0.403-0.092,0.834-0.186,1.449-0.226l0.253-0.011h0.061l0.157,0.008h0.096     c0.3,0.02,0.533,0.061,0.813,0.14c0.301,0.089,0.649,0.223,1.066,0.517c0.41,0.279,0.827,0.745,1.067,1.24     c0.246,0.479-3.392,1.781-3.371,2.116c0.047,0.718,0.752,1.313,0.677,1.603c-0.171,0.55,0.464,1.084,0.335,1.341     c-0.13,0.249,1.867-0.862,1.757-0.68c-0.266,0.423-0.52,0.778-0.758,1.113l1.524-0.437c2.482-0.656,4.971-1.272,7.521-1.819     c1.278-0.257,2.57-0.5,3.932-0.7c0.689-0.097,1.374-0.186,2.215-0.223c0.212-0.014,0.451-0.018,0.718-0.014     c0.294,0.014,0.581,0.014,1.183,0.15c0.117,0.023,0.377,0.106,0.581,0.185c0.11,0.044,0.302,0.14,0.444,0.219     c0.089,0.055,0.137,0.081,0.246,0.157c0.123,0.078,0.233,0.171,0.342,0.266c0.109,0.094,0.212,0.195,0.309,0.302     c0.129,0.146,0.252,0.321,0.369,0.499c0.108,0.178,0.205,0.365,0.273,0.561c0.081,0.208,0.144,0.431,0.178,0.649     c0.048,0.212,0.061,0.486,0.055,0.636c-0.007,0.172-0.021,0.345-0.055,0.517c-0.021,0.153-0.068,0.365-0.103,0.468     c-0.015,0.034-0.028,0.068-0.041,0.103c2.488-0.42,5.113-0.539,7.644-0.205c1.367,0.178,2.693,0.454,3.945,0.766l1.858,0.486     l0.834,0.211l0.861,0.172c0.035,0.003,0.063,0.006,0.104,0.011c0.416-2.035,0.642-4.147,0.642-6.308     c0-17.335-14.063-31.389-31.394-31.389c-17.339,0-31.403,14.053-31.403,31.389c0,1.945,0.206,3.836,0.547,5.682     C22.052,64.423,26.332,62.549,30.639,60.646z" data-part-id="logo__item--logo_0__0"></path>          </g>        </g>        <path fill="#C7203B" d="M35.583,62.61c-0.144,0.312-0.308,0.646-0.451,1.107c0.499-1.019,0.963-2.058,1.585-3.009   c0.609-0.93,1.299-1.784,1.75-2.809c0.185-0.429,0.582-0.691,1.033-0.794c0.396-0.517,0.758-1.052,1.155-1.579   c0.328-0.466,0.725-0.861,1.115-1.262c-0.362,0.045-0.69,0.106-0.985,0.172c-0.396,0.092-0.752,0.2-1.101,0.307   c-0.683,0.216-1.319,0.448-1.941,0.68c-2.482,0.938-4.779,1.963-7.104,2.971c-4.615,2.035-9.182,4.059-13.831,5.908   c-1.19,0.482-2.264,0.898-3.412,1.228c-1.142,0.324-2.29,0.54-3.398,0.529c-1.094-0.017-2.14-0.346-2.817-1.221   c-0.697-0.867-0.929-2.167-0.861-3.425c-0.233,0.595-0.369,1.237-0.39,1.906c-0.021,0.661,0.062,1.365,0.356,2.032   c0.287,0.67,0.793,1.268,1.415,1.694c0.616,0.438,1.313,0.715,2.01,0.89c2.81,0.663,5.565,0.116,8.067-0.403   c5.025-1.063,9.948-2.53,14.782-4.079c1.04-0.334,2.078-0.677,3.117-1.011C35.644,62.501,35.617,62.549,35.583,62.61z" data-part-id="logo__item--logo_0__1"></path>        <path fill="#C7203B" d="M79.222,64.542l-0.861-0.168l-0.834-0.208l-1.858-0.488c-1.252-0.314-2.578-0.589-3.945-0.766   c-2.53-0.335-5.155-0.221-7.644,0.205c0.013-0.035,0.026-0.073,0.041-0.104c0.034-0.102,0.082-0.308,0.103-0.472   c0.034-0.167,0.048-0.342,0.055-0.513c0.006-0.151-0.007-0.424-0.055-0.636c-0.034-0.223-0.097-0.444-0.178-0.649   c-0.068-0.198-0.165-0.383-0.273-0.564c-0.117-0.175-0.24-0.353-0.369-0.495c-0.097-0.11-0.199-0.21-0.309-0.309   c-0.108-0.092-0.219-0.178-0.342-0.264c-0.109-0.074-0.157-0.099-0.246-0.152c-0.143-0.079-0.334-0.178-0.444-0.22   c-0.204-0.082-0.464-0.163-0.581-0.184c-0.602-0.137-0.889-0.134-1.183-0.151c-0.267-0.006-0.506,0-0.718,0.007   c-0.841,0.046-1.525,0.137-2.215,0.229c-1.361,0.203-2.653,0.441-3.932,0.702c-2.55,0.547-5.039,1.166-7.521,1.822l-1.524,0.43   c0.239-0.331,0.492-0.688,0.758-1.106c0.11-0.186,0.233-0.38,0.37-0.631c0.13-0.256,0.287-0.525,0.444-1.08   c0.076-0.289,0.191-0.651,0.151-1.369c-0.021-0.336-0.116-0.821-0.362-1.303c-0.109-0.226-0.267-0.441-0.431-0.639   c-0.068,0.129-0.129,0.266-0.226,0.383c-0.649,0.806-1.422,1.452-2.017,2.31c-0.314,0.466-0.65,0.923-0.999,1.364   c-0.021,0.266-0.082,0.544-0.273,0.831c-1.032,1.523-1.894,2.626-2.181,4.515c-0.212,1.379-0.028,2.821,0.095,4.205   c0.014,0.175-0.02,0.312-0.047,0.454c0.95,0.015,1.627-0.102,2.297-0.218c0.759-0.145,1.45-0.317,2.127-0.502l3.616-0.984   c1.634-0.448,3.281-0.872,4.923-1.272c0,0.021,0,0.038,0,0.064c0.075,0.547,0.321,1.125,0.608,1.525   c0.608,0.824,1.196,1.104,1.613,1.306c0.424,0.192,0.76,0.276,1.06,0.342c1.156,0.219,1.929,0.157,2.722,0.109   c0.772-0.068,1.497-0.178,2.201-0.321c1.381-0.277,2.811-0.756,3.842-1.07c2.243-0.659,4.445-1.06,6.742-1.069   c1.155-0.018,2.337,0.075,3.576,0.185l1.866,0.178l0.491,0.048l0.541,0.041c0.342,0.02,0.684,0.034,1.031,0.034   c2.715,0,5.374-0.414,7.884-1.259c1.252-0.424,2.469-0.938,3.609-1.572c1.128-0.653,2.202-1.398,3.118-2.289   C88.951,65.031,83.851,65.317,79.222,64.542z" data-part-id="logo__item--logo_0__2"></path>        <path fill="#C7203B" d="M71.716,42.033l-2.804-0.834c-0.745-0.219-1.969-0.188-2.7,0.07l-1.244,0.438   c-0.731,0.26-1.962,0.333-2.728,0.161l-3.419-0.766c-0.767-0.172-1.784-0.126-2.264,0.098c-0.485,0.224-0.376,0.812,0.232,1.297   l0.779,0.617c0.609,0.491,0.514,1.126-0.204,1.421l-2.106,0.849c-0.725,0.294-1.798,0.114-2.386-0.402l-1.081-0.947   c-0.588-0.512-1.64-0.662-2.351-0.325l-0.042,0.021c-0.704,0.335-1.025,1.195-0.711,1.909l0.677,1.511   c-2.269,1.265-4.402,2.757-6.337,4.438c-2.872,2.502-5.442,5.395-7.248,8.793c-0.868,1.698-1.579,3.549-1.64,5.531   c-0.11,1.976,0.882,4.084,2.782,4.9c1.442,0.657,3.001,0.743,4.512,0.589c0.076,0.042,0.137,0.11,0.219,0.146   c1.797,0.824,3.787,0.763,5.626,0.441c1.859-0.314,3.631-0.961,5.333-1.717c-1.736,0.672-3.535,1.219-5.374,1.44   c-1.613,0.202-3.309,0.14-4.772-0.448c0.027-0.006,0.055-0.006,0.082-0.011c1.86-0.317,3.638-0.959,5.333-1.712   c-1.736,0.667-3.535,1.217-5.374,1.436c-0.205,0.027-0.417,0.03-0.628,0.048c-0.376-0.205-0.718-0.464-1.005-0.738   c-0.314-0.354-0.567-0.663-0.745-1.066c-0.376-0.776-0.485-1.665-0.417-2.537c0.137-1.763,0.882-3.466,1.791-5.024   c1.853-3.124,4.465-5.785,7.33-8.03c1.688-1.319,3.473-2.472,5.346-3.47c0.232-0.034,0.451-0.087,0.643-0.164l16.942-7.015   C72.488,42.681,72.468,42.257,71.716,42.033z M47.759,52.321c-2.878,2.509-5.442,5.401-7.247,8.796   c-0.868,1.698-1.579,3.544-1.641,5.526c-0.095,1.703,0.664,3.447,2.079,4.438c-1.326,0.021-2.639-0.175-3.773-0.771   c-0.39-0.208-0.739-0.481-1.026-0.758c-0.321-0.355-0.575-0.664-0.752-1.07c-0.375-0.772-0.485-1.662-0.417-2.537   c0.137-1.764,0.889-3.463,1.785-5.021c1.867-3.124,4.478-5.787,7.336-8.03c1.997-1.563,4.136-2.908,6.392-4.007   c0.294,0.278,0.603,0.514,0.902,0.665C50.132,50.413,48.901,51.33,47.759,52.321z" data-part-id="logo__item--logo_0__3"></path>        <polygon fill="#FFFFFF" points="66.602,47.926 67.518,50.232 69.883,49.507 68.652,51.661 70.704,53.059 68.249,53.436    68.427,55.907 66.602,54.225 64.783,55.907 64.968,53.436 62.506,53.059 64.557,51.661 63.32,49.507 65.692,50.232  " data-part-id="logo__item--logo_0__4"></polygon>        <polygon fill="#FFFFFF" points="53.905,31.159 54.384,32.388 55.649,32 54.992,33.143 56.08,33.892 54.773,34.088 54.869,35.404    53.905,34.51 52.935,35.404 53.03,34.088 51.724,33.892 52.812,33.143 52.155,32 53.42,32.388  " data-part-id="logo__item--logo_0__5"></polygon>        <polygon fill="#FFFFFF" points="48.662,30.081 49.03,31.005 49.981,30.716 49.489,31.574 50.302,32.135 49.325,32.285    49.393,33.274 48.662,32.602 47.937,33.274 48.005,32.285 47.027,32.135 47.848,31.574 47.349,30.716 48.299,31.005  " data-part-id="logo__item--logo_0__6"></polygon>        <polygon fill="#FFFFFF" points="45.94,42.117 45.995,43.106 46.986,43.13 46.241,43.793 46.849,44.584 45.865,44.416    45.619,45.378 45.141,44.51 44.238,44.917 44.621,44 43.732,43.549 44.689,43.275 44.491,42.301 45.304,42.878  " data-part-id="logo__item--logo_0__7"></polygon>        <polygon fill="#FFFFFF" points="50.404,36.921 50.65,37.54 51.287,37.344 50.952,37.924 51.506,38.298 50.85,38.397 50.897,39.064    50.404,38.613 49.919,39.064 49.967,38.397 49.304,38.298 49.858,37.924 49.522,37.344 50.159,37.54  " data-part-id="logo__item--logo_0__8"></polygon>        <polygon fill="#FFFFFF" points="42.83,32.788 43.082,33.406 43.718,33.211 43.384,33.789 43.93,34.166 43.281,34.265    43.322,34.929 42.83,34.478 42.351,34.929 42.399,34.265 41.736,34.166 42.29,33.789 41.954,33.211 42.59,33.406  " data-part-id="logo__item--logo_0__9"></polygon>      </g>    </g>  </g></svg>