<?xml version="1.0" encoding="iso-8859-1"?>
<!-- Generator: Adobe Illustrator 19.0.0, SVG Export Plug-In . SVG Version: 6.00 Build 0)  -->
<svg version="1.1" id="Layer_1" xmlns="http://www.w3.org/2000/svg" x="0px" y="0px"
	 viewBox="0 0 512 512" style="enable-background:new 0 0 512 512;" xml:space="preserve">
<path style="fill:#FF5E8A;" d="M163.911,22.386c-27.016,0-48.214,30.124-48.214,30.124S95.703,22.386,67.473,22.386
	c-27.459,0-49.883,22.649-51.35,50.071c-0.826,15.492,4.167,27.282,11.203,37.96c14.059,21.334,75.53,72.695,88.462,72.695
	c13.198,0,74.122-51.174,88.276-72.695c7.05-10.727,12.031-22.467,11.202-37.96C213.798,45.034,191.373,22.386,163.911,22.386"/>
<path d="M115.789,199.146c-4.584,0-15.322,0-54.029-32.029c-17.298-14.309-38.943-34.402-47.823-47.877
	C7.435,109.377-1.069,93.705,0.111,71.602c1.958-36.59,31.546-65.25,67.362-65.25c20.779,0,37.569,11.647,48.342,21.932
	c10.889-10.276,27.73-21.932,48.097-21.932c35.816,0,65.406,28.66,67.364,65.247c1.183,22.052-7.316,37.74-13.812,47.624
	c-8.957,13.618-30.488,33.696-47.653,47.946C131.296,199.146,120.429,199.146,115.789,199.146z M117.845,167.301L117.845,167.301
	L117.845,167.301z M117.845,167.301L117.845,167.301L117.845,167.301z M67.473,38.42c-18.457,0-34.309,15.653-35.34,34.892
	c-0.528,9.895,2.038,18.351,8.582,28.28c11.479,17.42,59.954,57.955,75.113,64.922c15.026-6.868,63.307-47.372,74.84-64.909
	c6.637-10.092,9.124-18.289,8.586-28.289c-1.031-19.243-16.883-34.896-35.341-34.896c-15.133,0-30.493,16.865-35.133,23.36
	c-3.013,4.22-7.892,6.739-13.065,6.739c-0.091,0-0.181-0.002-0.274-0.002c-5.274-0.091-10.185-2.747-13.102-7.142
	C98.047,55.032,83.342,38.42,67.473,38.42z"/>
<circle style="fill:#CFEB70;" cx="366.706" cy="229.851" r="129.349"/>
<path style="fill:#BBDCE3;" d="M275.241,321.31c-18.791-18.791-30.576-41.925-35.386-66.171L139.847,369.338
	c-21.893,24.473-20.856,61.785,2.363,85.005l0,0c23.219,23.219,60.531,24.257,85.005,2.363l114.198-100.008
	C317.168,351.887,294.032,340.1,275.241,321.31z"/>
<path d="M419.397,298.57c-1.058,0-2.102-0.096-3.143-0.303c-1.026-0.208-2.038-0.513-2.998-0.914
	c-0.96-0.401-1.892-0.898-2.774-1.475c-0.864-0.593-1.684-1.267-2.421-2.004c-0.754-0.738-1.411-1.555-2.004-2.437
	c-0.576-0.866-1.074-1.796-1.475-2.759c-0.401-0.976-0.704-1.988-0.914-2.998c-0.208-1.041-0.319-2.1-0.319-3.143
	c0-1.041,0.111-2.1,0.319-3.125c0.21-1.028,0.513-2.038,0.914-2.998c0.401-0.978,0.9-1.908,1.475-2.774
	c0.593-0.882,1.251-1.7,2.004-2.437c0.738-0.738,1.557-1.411,2.421-1.988c0.884-0.577,1.814-1.074,2.774-1.475
	c0.978-0.401,1.972-0.706,2.998-0.914c2.068-0.417,4.201-0.417,6.269,0c1.026,0.208,2.036,0.513,2.998,0.914
	c0.977,0.401,1.906,0.898,2.772,1.475c0.882,0.577,1.701,1.251,2.439,1.988c0.738,0.738,1.411,1.555,1.987,2.437
	c0.577,0.866,1.074,1.796,1.475,2.774c0.401,0.962,0.706,1.971,0.914,2.998c0.208,1.026,0.321,2.084,0.321,3.125
	c0,1.042-0.112,2.102-0.321,3.143c-0.208,1.01-0.513,2.022-0.914,2.998c-0.401,0.964-0.898,1.894-1.475,2.759
	c-0.576,0.882-1.249,1.7-1.987,2.437c-0.738,0.738-1.557,1.411-2.439,2.004c-0.866,0.577-1.796,1.074-2.772,1.475
	c-0.964,0.401-1.972,0.706-2.998,0.914C421.497,298.474,420.441,298.57,419.397,298.57z"/>
<path d="M480.201,320.672c45.701-57.029,42.15-140.769-10.7-193.62c-52.851-52.848-136.589-56.399-193.618-10.7l-6.388-6.386
	c-6.263-6.26-16.413-6.26-22.677,0c-6.261,6.261-6.261,16.414,0,22.677l6.383,6.383c-20.643,25.695-31.878,57.39-31.878,90.825
	c0,6.909,0.502,13.74,1.443,20.465l-94.93,108.399c-23.833,26.702-25.992,65.553-7.121,94.446l-25.116,25.115
	c-6.261,6.261-6.261,16.414,0,22.677c3.132,3.13,7.235,4.696,11.338,4.696s8.206-1.567,11.338-4.696l25.11-25.108
	c12.871,8.408,27.715,12.65,42.589,12.648c18.507-0.002,37.054-6.556,51.86-19.769l108.471-94.996
	c6.763,0.951,13.579,1.437,20.396,1.437c32.189,0,64.375-10.621,90.82-31.812l6.388,6.387c3.132,3.13,7.235,4.696,11.338,4.696
	c4.103,0,8.206-1.567,11.338-4.696c6.261-6.261,6.261-16.414,0-22.677L480.201,320.672z M309.345,363.466l-92.695,81.179
	c-0.042,0.035-0.085,0.074-0.127,0.111c-13.923,12.454-33.473,14.872-49.585,7.533l10.955-10.953c6.261-6.261,6.261-16.414,0-22.677
	c-6.261-6.257-16.411-6.26-22.677,0l-10.956,10.955c-7.341-16.111-4.919-35.662,7.536-49.586c0.037-0.04,0.075-0.083,0.112-0.127
	l81.164-92.682c3.608,8.4,8.009,16.462,13.187,24.085c0.003,0.003,0.006,0.008,0.008,0.013c1.273,1.873,2.588,3.723,3.952,5.543
	c0.197,0.263,0.409,0.515,0.608,0.776c1.188,1.563,2.392,3.114,3.648,4.634c0.51,0.619,1.052,1.212,1.573,1.823
	c0.988,1.156,1.963,2.319,2.99,3.447c1.227,1.35,2.501,2.662,3.781,3.97c0.367,0.375,0.712,0.768,1.084,1.138
	c0.148,0.147,0.301,0.282,0.451,0.428c1.567,1.555,3.16,3.075,4.788,4.552c0.601,0.544,1.22,1.052,1.828,1.584
	c1.201,1.053,2.402,2.107,3.633,3.117c0.686,0.564,1.39,1.094,2.086,1.642c1.185,0.936,2.37,1.873,3.58,2.771
	c0.702,0.521,1.421,1.013,2.131,1.52c1.238,0.884,2.477,1.762,3.741,2.604c0.678,0.452,1.368,0.882,2.051,1.32
	c1.331,0.855,2.665,1.701,4.021,2.509c0.625,0.374,1.259,0.73,1.889,1.094c1.446,0.835,2.902,1.652,4.376,2.437
	c0.55,0.292,1.103,0.569,1.656,0.855c1.581,0.815,3.173,1.607,4.785,2.362c0.459,0.215,0.919,0.422,1.377,0.63
	C307.315,362.537,308.319,363.026,309.345,363.466z M304.74,324.719c-0.266-0.173-0.532-0.35-0.797-0.526
	c-1.331-0.885-2.649-1.801-3.949-2.75c-0.132-0.096-0.265-0.184-0.394-0.282c-1.406-1.036-2.793-2.11-4.161-3.22
	c-0.281-0.229-0.555-0.463-0.834-0.694c-1.079-0.892-2.144-1.805-3.196-2.743c-0.342-0.303-0.683-0.606-1.021-0.914
	c-1.288-1.174-2.562-2.373-3.807-3.619c-1.193-1.193-2.346-2.416-3.478-3.651c-0.369-0.402-0.73-0.811-1.092-1.219
	c-0.762-0.855-1.506-1.719-2.238-2.591c-0.402-0.481-0.807-0.959-1.201-1.443c-0.746-0.919-1.466-1.852-2.179-2.79
	c-0.673-0.887-1.331-1.785-1.977-2.691c-0.478-0.667-0.956-1.334-1.417-2.011c-0.553-0.811-1.092-1.634-1.623-2.458
	c-0.29-0.449-0.574-0.901-0.858-1.353c-0.592-0.949-1.179-1.898-1.741-2.862c-0.005-0.01-0.011-0.019-0.016-0.029
	c-6.263-10.741-10.724-22.488-13.179-34.854c-0.021-0.109-0.063-0.21-0.087-0.317c-1.384-7.124-2.102-14.433-2.102-21.852
	c0-24.852,7.961-48.474,22.652-67.981l98.177,98.177c3.132,3.13,7.235,4.696,11.338,4.696c4.103,0,8.206-1.567,11.338-4.696
	c6.261-6.261,6.261-16.414,0-22.677l-98.162-98.162c20.059-15.063,44.006-22.615,67.967-22.615
	c29.016,0,58.032,11.046,80.122,33.135c44.181,44.18,44.181,116.065,0,160.244C408.285,348.515,348.663,353.422,304.74,324.719z"/>
<path d="M200.383,412.205c-1.042,0-2.102-0.111-3.127-0.321c-1.026-0.208-2.038-0.512-2.998-0.912
	c-0.978-0.401-1.906-0.9-2.772-1.475c-0.883-0.577-1.701-1.251-2.439-1.988c-0.738-0.738-1.411-1.555-1.988-2.439
	c-0.576-0.866-1.074-1.794-1.475-2.772c-0.401-0.964-0.722-1.972-0.912-2.998c-0.21-1.026-0.321-2.084-0.321-3.127
	c0-1.041,0.111-2.1,0.321-3.143c0.191-1.01,0.512-2.02,0.912-2.998c0.401-0.962,0.9-1.892,1.475-2.758
	c0.577-0.882,1.251-1.7,1.988-2.437c0.738-0.739,1.555-1.413,2.439-2.004c0.866-0.577,1.794-1.058,2.772-1.459
	c0.962-0.401,1.972-0.722,2.998-0.93c2.068-0.417,4.185-0.417,6.253,0c1.026,0.208,2.036,0.529,2.997,0.93
	c0.978,0.401,1.908,0.882,2.774,1.459c0.882,0.592,1.7,1.265,2.437,2.004c0.738,0.738,1.413,1.555,2.004,2.437
	c0.563,0.866,1.058,1.796,1.459,2.758c0.401,0.978,0.722,1.988,0.914,2.998c0.208,1.042,0.321,2.102,0.321,3.143
	c0,1.042-0.112,2.102-0.321,3.127c-0.192,1.026-0.513,2.036-0.914,2.998c-0.401,0.978-0.898,1.906-1.459,2.772
	c-0.592,0.883-1.267,1.701-2.004,2.439c-0.738,0.738-1.555,1.411-2.437,1.988c-0.866,0.576-1.796,1.074-2.774,1.475
	c-0.962,0.401-1.971,0.704-2.997,0.912S201.425,412.205,200.383,412.205z"/>
<g>
</g>
<g>
</g>
<g>
</g>
<g>
</g>
<g>
</g>
<g>
</g>
<g>
</g>
<g>
</g>
<g>
</g>
<g>
</g>
<g>
</g>
<g>
</g>
<g>
</g>
<g>
</g>
<g>
</g>
</svg>
